<svg xmlns="http://www.w3.org/2000/svg" width="800" height="600"><rect x="0" y="0" width="800" height="600" fill="green"></rect><circle cx="400.0" cy="300.0" r="640.0" fill-opacity="0.0" fill="black"></circle><circle cx="240.0" cy="300.0" r="480.0" fill-opacity="0.0" fill="black"></circle><circle cx="160.0" cy="300.0" r="400.0" fill-opacity="0.0" fill="black"></circle><circle cx="720.0" cy="300.0" r="320.0" fill-opacity="0.0" fill="black"></circle><circle cx="80.0" cy="300.0" r="320.0" fill-opacity="0.0" fill="black"></circle><circle cx="480.0" cy="300.0" r="240.0" fill-opacity="0.0" fill="black"></circle><circle cx="0.0" cy="300.0" r="240.0" fill-opacity="0.0" fill="black"></circle><circle cx="880.0" cy="300.0" r="160.0" fill-opacity="0.0" fill="black"></circle><circle cx="560.0" cy="300.0" r="160.0" fill-opacity="0.0" fill="black"></circle><circle cx="240.0" cy="300.0" r="160.0" fill-opacity="0.0" fill="black"></circle><circle cx="-80.0" cy="300.0" r="160.0" fill-opacity="0.0" fill="black"></circle><circle cx="960.0" cy="300.0" r="80.0" fill-opacity="0.0" fill="black"></circle><circle cx="800.0" cy="300.0" r="80.0" fill-opacity="0.0" fill="black"></circle><circle cx="640.0" cy="300.0" r="80.0" fill-opacity="0.0" fill="black"></circle><circle cx="480.0" cy="300.0" r="80.0" fill-opacity="0.0" fill="black"></circle><circle cx="320.0" cy="300.0" r="80.0" fill-opacity="0.0" fill="black"></circle><circle cx="160.0" cy="300.0" r="80.0" fill-opacity="0.0" fill="black"></circle><circle cx="0.0" cy="300.0" r="80.0" fill-opacity="0.0" fill="black"></circle><circle cx="-160.0" cy="300.0" r="80.0" fill-opacity="0.0" fill="black"></circle></svg>