<svg xmlns="http://www.w3.org/2000/svg" width="800" height="600"><rect x="0" y="0" width="800" height="600" fill="green"></rect><circle id="element18" cx="400.0" cy="300.0" r="640.0" fill-opacity="0.0" fill="black" stroke="black" stroke-width="1.0" stroke-opacity="1.0"></circle><polygon id="element17" points="720.0000000000001,300.0000000000001 239.99999999999991,780.0 -240.00000000000003,299.99999999999994 240.00000000000003,-180.00000000000006 " fill-opacity="0.0" fill="black" stroke="black" stroke-width="1.0" stroke-opacity="1.0"></polygon><polygon id="element16" points="506.4101615137754,500.0000000000002 -186.4101615137755,499.9999999999999 159.99999999999997,-100.0 " fill-opacity="0.0" fill="black" stroke="black" stroke-width="1.0" stroke-opacity="1.0"></polygon><circle id="element15" cx="720.0" cy="300.0" r="320.0" fill-opacity="0.0" fill="black" stroke="black" stroke-width="1.0" stroke-opacity="1.0"></circle><polygon id="element14" points="400.0,300.00000000000006 79.99999999999994,620.0 -240.0,299.99999999999994 80.0,-20.0 " fill-opacity="0.0" fill="black" stroke="black" stroke-width="1.0" stroke-opacity="1.0"></polygon><polygon id="element13" points="687.8460969082653,420.0000000000001 272.15390309173466,420.0 480.0,59.99999999999997 " fill-opacity="0.0" fill="black" stroke="black" stroke-width="1.0" stroke-opacity="1.0"></polygon><circle id="element12" cx="0.0" cy="300.0" r="240.0" fill-opacity="0.0" fill="black" stroke="black" stroke-width="1.0" stroke-opacity="1.0"></circle><polygon id="element11" points="1040.0,300.0 880.0000000000001,460.0 720.0000000000001,300.0 880.0000000000001,140.0 " fill-opacity="0.0" fill="black" stroke="black" stroke-width="1.0" stroke-opacity="1.0"></polygon><polygon id="element10" points="698.5640646055101,380.00000000000006 421.43593539448983,380.0 560.0,140.0 " fill-opacity="0.0" fill="black" stroke="black" stroke-width="1.0" stroke-opacity="1.0"></polygon><circle id="element9" cx="240.0" cy="300.0" r="160.0" fill-opacity="0.0" fill="black" stroke="black" stroke-width="1.0" stroke-opacity="1.0"></circle><polygon id="element8" points="79.99999999999997,300.0 -80.00000000000006,460.0 -240.00000000000003,300.0 -80.00000000000003,140.0 " fill-opacity="0.0" fill="black" stroke="black" stroke-width="1.0" stroke-opacity="1.0"></polygon><polygon id="element7" points="1029.282032302755,340.0 890.717967697245,340.0 960.0,220.0 " fill-opacity="0.0" fill="black" stroke="black" stroke-width="1.0" stroke-opacity="1.0"></polygon><circle id="element6" cx="800.0" cy="300.0" r="80.0" fill-opacity="0.0" fill="black" stroke="black" stroke-width="1.0" stroke-opacity="1.0"></circle><polygon id="element5" points="720.0,300.0 640.0,380.0 560.0,300.0 640.0,220.0 " fill-opacity="0.0" fill="black" stroke="black" stroke-width="1.0" stroke-opacity="1.0"></polygon><polygon id="element4" points="549.282032302755,340.0 410.7179676972449,340.0 480.0,220.0 " fill-opacity="0.0" fill="black" stroke="black" stroke-width="1.0" stroke-opacity="1.0"></polygon><circle id="element3" cx="320.0" cy="300.0" r="80.0" fill-opacity="0.0" fill="black" stroke="black" stroke-width="1.0" stroke-opacity="1.0"></circle><polygon id="element2" points="239.99999999999997,300.0 159.99999999999994,380.0 79.99999999999997,300.0 159.99999999999997,220.0 " fill-opacity="0.0" fill="black" stroke="black" stroke-width="1.0" stroke-opacity="1.0"></polygon><polygon id="element1" points="69.28203230275506,340.0 -69.2820323027551,340.0 0.0,220.0 " fill-opacity="0.0" fill="black" stroke="black" stroke-width="1.0" stroke-opacity="1.0"></polygon><circle id="element0" cx="-160.0" cy="300.0" r="80.0" fill-opacity="0.0" fill="black" stroke="black" stroke-width="1.0" stroke-opacity="1.0"></circle></svg>